<svg width="18" height="18" viewBox="0 0 18 18" fill="none" xmlns="http://www.w3.org/2000/svg">
    <path d="M16 16V2H2V16H16ZM16 0C16.5304 0 17.0391 0.210714 17.4142 0.585786C17.7893 0.960859 18 1.46957 18 2V16C18 16.5304 17.7893 17.0391 17.4142 17.4142C17.0391 17.7893 16.5304 18 16 18H2C1.46957 18 0.960859 17.7893 0.585786 17.4142C0.210714 17.0391 0 16.5304 0 16V2C0 1.46957 0.210714 0.960859 0.585786 0.585786C0.960859 0.210714 1.46957 0 2 0H16ZM13.7 6.35L12.7 7.35L10.65 5.3L11.65 4.3C11.86 4.08 12.21 4.08 12.42 4.3L13.7 5.58C13.92 5.79 13.92 6.14 13.7 6.35ZM4 11.94L10.06 5.88L12.12 7.94L6.06 14H4V11.94Z" fill="#4ECB71"/>
    </svg>
    