<svg width="40" height="60" viewBox="0 0 40 60" fill="none" xmlns="http://www.w3.org/2000/svg">
    <path d="M30 20C30 17.2396 29.0234 14.8828 27.0703 12.9297C25.1172 10.9766 22.7604 10 20 10C17.2396 10 14.8828 10.9766 12.9297 12.9297C10.9766 14.8828 10 17.2396 10 20C10 22.7604 10.9766 25.1172 12.9297 27.0703C14.8828 29.0234 17.2396 30 20 30C22.7604 30 25.1172 29.0234 27.0703 27.0703C29.0234 25.1172 30 22.7604 30 20ZM40 20C40 22.8385 39.5703 25.1693 38.7109 26.9922L24.4922 57.2266C24.0755 58.0859 23.457 58.763 22.6367 59.2578C21.8164 59.7526 20.9375 60 20 60C19.0625 60 18.1836 59.7526 17.3633 59.2578C16.543 58.763 15.9375 58.0859 15.5469 57.2266L1.28906 26.9922C0.429688 25.1693 0 22.8385 0 20C0 14.4792 1.95312 9.76562 5.85938 5.85938C9.76562 1.95312 14.4792 0 20 0C25.5208 0 30.2344 1.95312 34.1406 5.85938C38.0469 9.76562 40 14.4792 40 20Z" fill="#0000FF"/>
    </svg>
    
